<?xml version="1.0" encoding="UTF-8"?>
<svg version="1.1" xmlns="http://www.w3.org/2000/svg" width="640" height="640">
<path d="M0 0 C211.2 0 422.4 0 640 0 C640 211.2 640 422.4 640 640 C428.8 640 217.6 640 0 640 C0 428.8 0 217.6 0 0 Z " fill="#FEFEFE" transform="translate(0,0)"/>
<path d="M0 0 C12.10529496 8.90027401 18.41452194 19.61435937 22 34.125 C22 34.785 22 35.445 22 36.125 C22.99257813 35.63902344 23.98515625 35.15304687 25.0078125 34.65234375 C28.93354641 32.97764027 32.63599538 32.62618364 36.875 32.6875 C37.57173828 32.69072266 38.26847656 32.69394531 38.98632812 32.69726562 C44.70005704 32.85140343 49.16983336 34.11956298 54 37.125 C53.9175 36.196875 53.835 35.26875 53.75 34.3125 C53.81325133 23.83386252 60.23936818 13.52101495 66.9609375 5.90234375 C77.02569374 -3.80696571 90.38869469 -9.29956926 104.3125 -9.1875 C105.42443726 -9.17904053 105.42443726 -9.17904053 106.55883789 -9.17041016 C117.20799671 -8.93656625 125.23679492 -5.85962786 134 0.125 C134.76183594 0.60453125 135.52367187 1.0840625 136.30859375 1.578125 C145.44070387 7.84556973 151.80198481 18.23302202 154.66015625 28.84375 C155.07445831 31.62481211 155.06050435 34.31759837 155 37.125 C155.56509277 37.11452637 156.13018555 37.10405273 156.71240234 37.09326172 C159.26655653 37.05175212 161.82063982 37.0256904 164.375 37 C165.26445312 36.98324219 166.15390625 36.96648437 167.0703125 36.94921875 C168.34648438 36.93955078 168.34648438 36.93955078 169.6484375 36.9296875 C170.82672119 36.91397705 170.82672119 36.91397705 172.02880859 36.89794922 C174 37.125 174 37.125 176 39.125 C176.25 42.125 176.25 42.125 176 45.125 C174 47.125 174 47.125 172.02880859 47.35205078 C171.24328613 47.34157715 170.45776367 47.33110352 169.6484375 47.3203125 C168.79765625 47.31386719 167.946875 47.30742187 167.0703125 47.30078125 C166.18085938 47.28402344 165.29140625 47.26726562 164.375 47.25 C163.02921875 47.23646484 163.02921875 47.23646484 161.65625 47.22265625 C159.43723414 47.1990497 157.21874923 47.1661231 155 47.125 C155.04447266 48.68154297 155.04447266 48.68154297 155.08984375 50.26953125 C154.81088144 62.24065308 148.24462241 71.58041756 140.2109375 80 C129.7165828 89.54936542 118.20791882 93.71123868 104.1875 93.625 C103.12523193 93.62000488 102.06296387 93.61500977 100.96850586 93.60986328 C92.91226158 93.43046446 86.94939106 92.41026887 80 88.125 C79.19949219 87.67898438 78.39898437 87.23296875 77.57421875 86.7734375 C66.18875098 79.9230216 59.08950719 69.07329562 54.89453125 56.73828125 C54.45173828 55.44470703 54.45173828 55.44470703 54 54.125 C53.70609375 53.24714844 53.4121875 52.36929688 53.109375 51.46484375 C51.20983393 47.45841735 47.94515968 45.88744247 44 44.125 C37.70763834 42.30177153 31.78914783 43.05885478 26 46.125 C22.65554439 48.88911179 21.53811276 50.83592754 20.75 55.0625 C17.77583294 67.20295243 9.33910179 79.09061901 -1.37109375 85.63671875 C-2.67240234 86.37341797 -2.67240234 86.37341797 -4 87.125 C-5.40958984 87.96998047 -5.40958984 87.96998047 -6.84765625 88.83203125 C-18.67100263 94.96637986 -33.00188075 95.20148906 -45.859375 92.234375 C-48.80184465 91.09092824 -51.32832711 89.80009649 -54 88.125 C-54.87398437 87.60550781 -55.74796875 87.08601563 -56.6484375 86.55078125 C-62.77801823 82.60244771 -67.51938981 77.84855351 -72 72.125 C-72.72509766 71.22201172 -72.72509766 71.22201172 -73.46484375 70.30078125 C-77.78265525 64.25059553 -81 54.65859311 -81 47.125 C-82.89685547 47.17720703 -82.89685547 47.17720703 -84.83203125 47.23046875 C-86.49217423 47.25860677 -88.15233156 47.28590691 -89.8125 47.3125 C-90.64587891 47.33763672 -91.47925781 47.36277344 -92.33789062 47.38867188 C-93.54155273 47.40317383 -93.54155273 47.40317383 -94.76953125 47.41796875 C-95.87711792 47.44153442 -95.87711792 47.44153442 -97.00708008 47.46557617 C-99.56958216 47.02766236 -100.46191059 46.1883655 -102 44.125 C-101.75546876 40.78307308 -101.39456443 39.51956443 -99 37.125 C-97.02880859 36.89794922 -97.02880859 36.89794922 -94.6484375 36.9296875 C-93.79765625 36.93613281 -92.946875 36.94257813 -92.0703125 36.94921875 C-91.18085938 36.96597656 -90.29140625 36.98273438 -89.375 37 C-88.02921875 37.01353516 -88.02921875 37.01353516 -86.65625 37.02734375 C-84.43723414 37.0509503 -82.21874923 37.0838769 -80 37.125 C-80.03770508 36.56594971 -80.07541016 36.00689941 -80.11425781 35.4309082 C-80.3386367 29.57918089 -79.45464158 25.48057594 -76.75 20.3125 C-76.2240625 19.28709106 -76.2240625 19.28709106 -75.6875 18.2409668 C-69.08216411 6.12317273 -58.34877591 -3.15472677 -45.17578125 -7.296875 C-29.04818645 -11.5821246 -14.06651147 -8.76748317 0 0 Z " fill="#292529" transform="translate(283,277.875)"/>
<path d="M0 0 C8.87044199 6.60003124 14.80749495 15.34765752 17.1875 26.203125 C18.8895391 38.81165149 16.67783396 49.66023525 9.06640625 60.1171875 C2.00135885 68.41892431 -6.90608993 74.44351524 -17.8125 76.203125 C-31.23244795 76.94199537 -41.56968594 74.87835041 -51.9375 66.078125 C-59.44529158 59.05470707 -65.67690514 49.32967531 -66.2109375 38.80078125 C-66.22409543 37.28909958 -66.21584515 35.77709818 -66.1875 34.265625 C-66.17589844 33.47148193 -66.16429687 32.67733887 -66.15234375 31.85913086 C-65.81455216 19.77935573 -61.12269345 11.2733111 -52.34765625 2.83203125 C-47.42350942 -1.30303812 -42.97772966 -3.98982493 -36.8125 -5.796875 C-36.24144531 -5.97605469 -35.67039062 -6.15523438 -35.08203125 -6.33984375 C-22.67985475 -8.83735606 -10.6420508 -6.79908801 0 0 Z " fill="#FCFCFC" transform="translate(411.8125,285.796875)"/>
<path d="M0 0 C0.98484375 0.598125 1.9696875 1.19625 2.984375 1.8125 C12.88027493 8.50823329 19.32643004 17.2131555 22 29 C23.10058175 41.32395611 21.95608171 52.16682767 14.3125 62.3125 C5.98547055 71.84656674 -3.64347847 77.99974826 -16.5078125 79.375 C-29.93591545 79.62424553 -39.85958687 75.74148255 -49.6015625 66.5390625 C-58.09125658 57.55160134 -62.1397821 47.58786306 -61.9375 35.16015625 C-60.760053 23.07905946 -55.87595521 13.29392536 -47 5 C-34.58301317 -5.19304889 -14.22861525 -8.66909008 0 0 Z " fill="#FCFCFC" transform="translate(273,283)"/>
<path d="M0 0 C0.66 0.33 1.32 0.66 2 1 C-1.96 4.96 -5.92 8.92 -10 13 C-10.66 12.67 -11.32 12.34 -12 12 C-10.56665422 10.37133456 -9.12817021 8.74719006 -7.6875 7.125 C-6.88699219 6.22007812 -6.08648437 5.31515625 -5.26171875 4.3828125 C-3 2 -3 2 0 0 Z " fill="#D6D4D5" transform="translate(230,285)"/>
<path d="M0 0 C0.66 0.33 1.32 0.66 2 1 C-1.3 4.3 -4.6 7.6 -8 11 C-8.66 10.67 -9.32 10.34 -10 10 C-3.84965831 2.51708428 -3.84965831 2.51708428 0 0 Z " fill="#4D4B4D" transform="translate(357,278)"/>
</svg>
